<?xml version="1.0" encoding="UTF-8" standalone="no"?>
<svg width="54px" height="32px" viewBox="0 0 54 32" version="1.1" xmlns="http://www.w3.org/2000/svg" xmlns:xlink="http://www.w3.org/1999/xlink">
    <!-- Generator: Sketch 39.1 (31720) - http://www.bohemiancoding.com/sketch -->
    <title>Fill 1</title>
    <desc>Created with Sketch.</desc>
    <defs></defs>
    <g id="Page" stroke="none" stroke-width="1" fill="none" fill-rule="evenodd">
        <g id="Artboard" transform="translate(-252.000000, -16.000000)" fill="#3778FF">
            <g id="logo" transform="translate(252.000000, 16.000000)">
                <g id="Fill-1">
                    <path d="M13.7462391,20.8981051 C12.6098614,21.1110856 9.91656521,21.4040693 7.64200298,20.0203827 C6.52441551,19.0402533 5.45235831,17.977808 4.44628387,16.853644 L14.5171461,6.59162686 C15.4333886,7.48221341 16.8123776,8.77556217 18.3792694,10.0865449 C20.6604082,11.9950582 22.6685822,13.374264 24.3712698,14.2034209 C20.5871262,17.3447927 17.0179143,19.5942772 13.7462391,20.8981051 L13.7462391,20.8981051 Z M19.4705505,26.8618479 C17.5275642,26.2059229 15.6387084,25.3727189 13.8341921,24.3766901 C16.0593214,23.6093966 18.3975538,22.4480134 20.8102245,20.9101743 C23.7884101,19.0119233 26.9131598,16.5256092 30.097677,13.5201777 C33.7417608,10.0810523 36.65512,6.71224594 38.1524155,4.90050252 L49.4706626,15.8307306 C48.5549983,17.0857761 46.7723075,19.3142299 44.226009,21.535818 C41.9549158,23.5173966 39.5342953,25.1014886 37.0314313,26.2439371 C33.936457,27.6565318 30.7007001,28.3947726 27.4136314,28.4382793 C27.1899549,28.4359666 23.9529695,28.3752596 19.4705505,26.8618479 L19.4705505,26.8618479 Z M37.8146965,0 L36.6930619,1.4658579 C36.6633588,1.50473931 33.684306,5.37640226 29.2771203,9.73711813 L29.2726396,9.73292645 C29.2461164,9.75619748 26.5776089,12.0218705 22.7193882,9.30313515 L22.7138957,9.30963948 C19.8644234,7.22016141 16.9628443,4.43717782 15.6908153,3.11463186 L14.5169293,1.89405926 L0,16.6866274 L0.945584223,17.8291481 C3.56277981,20.9920565 6.57522151,23.6909897 9.89929262,25.8508591 C12.5620907,27.5810816 15.4281851,28.9700439 18.4180062,29.9793706 C23.540523,31.7088704 27.2633092,31.7287447 27.4241829,31.7287447 L27.4399378,31.7286002 C31.1924993,31.6813354 34.8792226,30.8431448 38.3976285,29.2372994 C41.1895736,27.9629577 43.8783168,26.2059952 46.3892028,24.0152665 C50.6525706,20.2953711 52.9222185,16.6272935 53.0165312,16.4732855 L53.7068568,15.3473147 L37.8146965,0 Z"></path>
                </g>
            </g>
        </g>
    </g>
</svg>